<svg xmlns="http://www.w3.org/2000/svg" width="2400" height="1550" viewBox="0 0 2400 1550">
<defs>
<marker id="arrow" viewBox="0 0 10 10" refX="8.5" refY="5" markerWidth="7" markerHeight="7" orient="auto-start-reverse">
<path d="M 0 0 L 10 5 L 0 10 z" fill="#475569"/>
</marker>
</defs>
<rect width="2400" height="1550" fill="#F8FAFC"/>
<rect x="768" y="50" width="880" height="128" rx="28" fill="#D8E1EB" stroke="none" stroke-width="0"/>
<rect x="760" y="40" width="880" height="128" rx="28" fill="#143E68" stroke="#143E68" stroke-width="3"/>
<text x="1200" y="104" fill="#FFFFFF" font-family="Microsoft YaHei" font-size="38" font-weight="700" text-anchor="middle" dominant-baseline="middle">
<tspan x="1200" dy="0.0">系统输入：视频流</tspan>
</text>
<line x1="1200" y1="168" x2="1200" y2="242" stroke="#94A3B8" stroke-width="5" stroke-linecap="round" marker-end="url(#arrow)"/>
<rect x="898" y="260" width="620" height="112" rx="24" fill="#D8E1EB" stroke="none" stroke-width="0"/>
<rect x="890" y="250" width="620" height="112" rx="24" fill="#EAF3FF" stroke="#2F80ED" stroke-width="3"/>
<text x="1200" y="306" fill="#0F172A" font-family="Microsoft YaHei" font-size="38" font-weight="700" text-anchor="middle" dominant-baseline="middle">
<tspan x="1200" dy="0.0">YOLOX 目标检测</tspan>
</text>
<line x1="1200" y1="362" x2="1200" y2="430" stroke="#94A3B8" stroke-width="5" stroke-linecap="round" marker-end="url(#arrow)"/>
<rect x="128" y="440" width="2160" height="930" rx="34" fill="#D8E1EB" stroke="none" stroke-width="0"/>
<rect x="120" y="430" width="2160" height="930" rx="34" fill="#FFFFFF" stroke="#94A3B8" stroke-width="3"/>
<text x="1200" y="480" fill="#0F172A" font-family="Microsoft YaHei" font-size="42" font-weight="700" text-anchor="middle" dominant-baseline="middle">
<tspan x="1200" dy="0.0">ByteTrack 算法</tspan>
</text>
<rect x="238" y="570" width="360" height="170" rx="26" fill="#D8E1EB" stroke="none" stroke-width="0"/>
<rect x="230" y="560" width="360" height="170" rx="26" fill="#EAF3FF" stroke="#2F80ED" stroke-width="3"/>
<text x="410" y="645" fill="#0F172A" font-family="Microsoft YaHei" font-size="31" font-weight="700" text-anchor="middle" dominant-baseline="middle">
<tspan x="410" dy="-21.5">历史活跃轨迹</tspan>
<tspan x="410" dy="43">t−1 时刻轨迹状态</tspan>
</text>
<rect x="728" y="570" width="460" height="170" rx="26" fill="#D8E1EB" stroke="none" stroke-width="0"/>
<rect x="720" y="560" width="460" height="170" rx="26" fill="#DCFCE7" stroke="#0F766E" stroke-width="3"/>
<text x="950" y="640" fill="#0F172A" font-family="Microsoft YaHei" font-size="30" font-weight="700" text-anchor="middle" dominant-baseline="middle">
<tspan x="950" dy="-21.0">卡尔曼状态预测</tspan>
<tspan x="950" dy="42">输出先验估计  x̂ₜ|ₜ₋₁</tspan>
</text>
<rect x="1328" y="570" width="430" height="170" rx="26" fill="#D8E1EB" stroke="none" stroke-width="0"/>
<rect x="1320" y="560" width="430" height="170" rx="26" fill="#F2E8FF" stroke="#8E44AD" stroke-width="3"/>
<text x="1535" y="640" fill="#0F172A" font-family="Microsoft YaHei" font-size="30" font-weight="700" text-anchor="middle" dominant-baseline="middle">
<tspan x="1535" dy="-21.0">置信度划分</tspan>
<tspan x="1535" dy="42">高置信度框 / 低置信度框</tspan>
</text>
<rect x="1868" y="550" width="280" height="110" rx="24" fill="#D8E1EB" stroke="none" stroke-width="0"/>
<rect x="1860" y="540" width="280" height="110" rx="24" fill="#F8F4FF" stroke="#8E44AD" stroke-width="3"/>
<text x="2000" y="595" fill="#0F172A" font-family="Microsoft YaHei" font-size="30" font-weight="700" text-anchor="middle" dominant-baseline="middle">
<tspan x="2000" dy="0.0">首次匹配</tspan>
</text>
<rect x="1868" y="720" width="280" height="110" rx="24" fill="#D8E1EB" stroke="none" stroke-width="0"/>
<rect x="1860" y="710" width="280" height="110" rx="24" fill="#EEF2FF" stroke="#4C6EF5" stroke-width="3"/>
<text x="2000" y="765" fill="#0F172A" font-family="Microsoft YaHei" font-size="30" font-weight="700" text-anchor="middle" dominant-baseline="middle">
<tspan x="2000" dy="0.0">二次匹配</tspan>
</text>
<rect x="648" y="800" width="620" height="430" rx="30" fill="#D8E1EB" stroke="none" stroke-width="0"/>
<rect x="640" y="790" width="620" height="430" rx="30" fill="#E9FFF5" stroke="#0F766E" stroke-width="3"/>
<text x="950" y="835" fill="#0F172A" font-family="Microsoft YaHei" font-size="34" font-weight="700" text-anchor="middle" dominant-baseline="middle">
<tspan x="950" dy="0.0">KalmanNet 模块</tspan>
</text>
<rect x="730" y="900" width="130" height="54" rx="18" fill="#FFFFFF" stroke="#0F766E" stroke-width="2"/>
<text x="795" y="927" fill="#0F766E" font-family="Microsoft YaHei" font-size="22" font-weight="700" text-anchor="middle" dominant-baseline="middle">
<tspan x="795" dy="0.0">FC 输入层</tspan>
</text>
<rect x="890" y="900" width="120" height="54" rx="18" fill="#FFFFFF" stroke="#E83E8C" stroke-width="2"/>
<text x="950" y="927" fill="#E83E8C" font-family="Microsoft YaHei" font-size="22" font-weight="700" text-anchor="middle" dominant-baseline="middle">
<tspan x="950" dy="0.0">GRU Q</tspan>
</text>
<rect x="1040" y="900" width="120" height="54" rx="18" fill="#FFFFFF" stroke="#8E44AD" stroke-width="2"/>
<text x="1100" y="927" fill="#8E44AD" font-family="Microsoft YaHei" font-size="22" font-weight="700" text-anchor="middle" dominant-baseline="middle">
<tspan x="1100" dy="0.0">GRU Σ</tspan>
</text>
<rect x="815" y="985" width="120" height="54" rx="18" fill="#FFFFFF" stroke="#4C6EF5" stroke-width="2"/>
<text x="875" y="1012" fill="#4C6EF5" font-family="Microsoft YaHei" font-size="22" font-weight="700" text-anchor="middle" dominant-baseline="middle">
<tspan x="875" dy="0.0">GRU S</tspan>
</text>
<rect x="965" y="985" width="130" height="54" rx="18" fill="#FFFFFF" stroke="#0F766E" stroke-width="2"/>
<text x="1030" y="1012" fill="#0F766E" font-family="Microsoft YaHei" font-size="22" font-weight="700" text-anchor="middle" dominant-baseline="middle">
<tspan x="1030" dy="0.0">FC 输出层</tspan>
</text>
<rect x="740" y="1080" width="420" height="100" rx="22" fill="#FFFFFF" stroke="#0F766E" stroke-width="3"/>
<text x="950" y="1130" fill="#0F172A" font-family="Microsoft YaHei" font-size="28" font-weight="700" text-anchor="middle" dominant-baseline="middle">
<tspan x="950" dy="0.0">输出卡尔曼残差增益  ΔKₜ</tspan>
</text>
<rect x="1498" y="940" width="480" height="190" rx="28" fill="#D8E1EB" stroke="none" stroke-width="0"/>
<rect x="1490" y="930" width="480" height="190" rx="28" fill="#F8FAFF" stroke="#4C6EF5" stroke-width="3"/>
<text x="1730" y="1022" fill="#0F172A" font-family="Microsoft YaHei" font-size="31" font-weight="700" text-anchor="middle" dominant-baseline="middle">
<tspan x="1730" dy="-21.5">轨迹管理</tspan>
<tspan x="1730" dy="43">新建轨迹 / 活跃轨迹 / 丢失轨迹</tspan>
</text>
<rect x="1680" y="840" width="190" height="42" rx="18" fill="#FFFFFF" stroke="#94A3B8" stroke-width="2"/>
<text x="1775" y="861" fill="#94A3B8" font-family="Microsoft YaHei" font-size="18" font-weight="700" text-anchor="middle" dominant-baseline="middle">
<tspan x="1775" dy="0.0">剩余轨迹进入二次匹配</tspan>
</text>
<rect x="1615" y="470" width="170" height="42" rx="18" fill="#FFFFFF" stroke="#2F80ED" stroke-width="2"/>
<text x="1700" y="491" fill="#2F80ED" font-family="Microsoft YaHei" font-size="18" font-weight="700" text-anchor="middle" dominant-baseline="middle">
<tspan x="1700" dy="0.0">检测结果 yₜ</tspan>
</text>
<rect x="1030" y="742" width="172" height="42" rx="18" fill="#FFFFFF" stroke="#0F766E" stroke-width="2"/>
<text x="1116" y="763" fill="#0F766E" font-family="Microsoft YaHei" font-size="18" font-weight="700" text-anchor="middle" dominant-baseline="middle">
<tspan x="1116" dy="0.0">先验估计送入匹配</tspan>
</text>
<line x1="590" y1="645" x2="720" y2="645" stroke="#475569" stroke-width="4" stroke-linecap="round" marker-end="url(#arrow)"/>
<polyline points="1180,645 1245,645 1245,525 1910,525 1910,540" fill="none" stroke="#475569" stroke-width="4" stroke-linejoin="round" stroke-linecap="round" marker-end="url(#arrow)"/>
<polyline points="1535,730 1535,770 1860,770" fill="none" stroke="#8E44AD" stroke-width="4" stroke-linejoin="round" stroke-linecap="round" marker-end="url(#arrow)"/>
<polyline points="2000,650 2000,710" fill="none" stroke="#94A3B8" stroke-width="4" stroke-linejoin="round" stroke-linecap="round" marker-end="url(#arrow)"/>
<line x1="950" y1="790" x2="950" y2="730" stroke="#475569" stroke-width="4" stroke-linecap="round" marker-end="url(#arrow)"/>
<line x1="2000" y1="820" x2="1730" y2="930" stroke="#475569" stroke-width="4" stroke-linecap="round" marker-end="url(#arrow)"/>
<polyline points="1730,1120 1730,1260 1200,1260 1200,1380" fill="none" stroke="#4C6EF5" stroke-width="5" stroke-linejoin="round" stroke-linecap="round" marker-end="url(#arrow)"/>
<rect x="990" y="1230" width="150" height="42" rx="18" fill="#FFFFFF" stroke="#4C6EF5" stroke-width="2"/>
<text x="1065" y="1251" fill="#4C6EF5" font-family="Microsoft YaHei" font-size="18" font-weight="700" text-anchor="middle" dominant-baseline="middle">
<tspan x="1065" dy="0.0">活跃轨迹集合</tspan>
</text>
<rect x="728" y="1390" width="960" height="120" rx="28" fill="#D8E1EB" stroke="none" stroke-width="0"/>
<rect x="720" y="1380" width="960" height="120" rx="28" fill="#143E68" stroke="#143E68" stroke-width="3"/>
<text x="1200" y="1440" fill="#FFFFFF" font-family="Microsoft YaHei" font-size="38" font-weight="700" text-anchor="middle" dominant-baseline="middle">
<tspan x="1200" dy="0.0">系统输出：连续多目标轨迹数据流</tspan>
</text>
</svg>