<svg xmlns="http://www.w3.org/2000/svg" width="1600" height="620" viewBox="0 0 1600 620">
<defs>
<marker id="arrow" viewBox="0 0 10 10" refX="8.5" refY="5" markerWidth="7" markerHeight="7" orient="auto-start-reverse">
<path d="M 0 0 L 10 5 L 0 10 z" fill="#475569"/>
</marker>
</defs>
<rect width="1600" height="620" fill="#F8FAFC"/>
<rect x="58" y="70" width="520" height="500" rx="34" fill="#D8E1EB" stroke="none" stroke-width="0"/>
<rect x="50" y="60" width="520" height="500" rx="34" fill="#EAF3FF" stroke="#2F80ED" stroke-width="3"/>
<text x="310" y="115" fill="#0F172A" font-family="Microsoft YaHei" font-size="34" font-weight="700" text-anchor="middle" dominant-baseline="middle">
<tspan x="310" dy="0.0">输入层</tspan>
</text>
<text x="310" y="180" fill="#0F172A" font-family="Microsoft YaHei" font-size="27" font-weight="700" text-anchor="middle" dominant-baseline="middle">
<tspan x="310" dy="-19.5">F₂：观测残差</tspan>
<tspan x="310" dy="39">Δyₜ = 当前观测值 - 先验观测预测值</tspan>
</text>
<rect x="95" y="270" width="170" height="92" rx="18" fill="#FFFFFF" stroke="#2F80ED" stroke-width="2"/>
<text x="180" y="300" fill="#2F80ED" font-family="Microsoft YaHei" font-size="24" font-weight="700" text-anchor="middle" dominant-baseline="middle">
<tspan x="180" dy="0.0">Δx</tspan>
</text>
<text x="180" y="332" fill="#0F172A" font-family="Microsoft YaHei" font-size="18" font-weight="700" text-anchor="middle" dominant-baseline="middle">
<tspan x="180" dy="0.0">中心 X 坐标差值</tspan>
</text>
<rect x="95" y="375" width="170" height="92" rx="18" fill="#FFFFFF" stroke="#2F80ED" stroke-width="2"/>
<text x="180" y="405" fill="#2F80ED" font-family="Microsoft YaHei" font-size="24" font-weight="700" text-anchor="middle" dominant-baseline="middle">
<tspan x="180" dy="0.0">Δy</tspan>
</text>
<text x="180" y="437" fill="#0F172A" font-family="Microsoft YaHei" font-size="18" font-weight="700" text-anchor="middle" dominant-baseline="middle">
<tspan x="180" dy="0.0">中心 Y 坐标差值</tspan>
</text>
<rect x="95" y="480" width="170" height="92" rx="18" fill="#FFFFFF" stroke="#2F80ED" stroke-width="2"/>
<text x="180" y="510" fill="#2F80ED" font-family="Microsoft YaHei" font-size="24" font-weight="700" text-anchor="middle" dominant-baseline="middle">
<tspan x="180" dy="0.0">Δa</tspan>
</text>
<text x="180" y="542" fill="#0F172A" font-family="Microsoft YaHei" font-size="18" font-weight="700" text-anchor="middle" dominant-baseline="middle">
<tspan x="180" dy="0.0">目标宽高比差值</tspan>
</text>
<rect x="300" y="375" width="170" height="92" rx="18" fill="#FFFFFF" stroke="#2F80ED" stroke-width="2"/>
<text x="385" y="405" fill="#2F80ED" font-family="Microsoft YaHei" font-size="24" font-weight="700" text-anchor="middle" dominant-baseline="middle">
<tspan x="385" dy="0.0">Δh</tspan>
</text>
<text x="385" y="437" fill="#0F172A" font-family="Microsoft YaHei" font-size="18" font-weight="700" text-anchor="middle" dominant-baseline="middle">
<tspan x="385" dy="0.0">目标高度差值</tspan>
</text>
<text x="520" y="282" fill="#475569" font-family="Microsoft YaHei" font-size="22" font-weight="700" text-anchor="middle" dominant-baseline="middle">
<tspan x="520" dy="-17.0">4 维差分</tspan>
<tspan x="520" dy="34">特征输入</tspan>
</text>
<line x1="570" y1="310" x2="675" y2="310" stroke="#475569" stroke-width="4" stroke-linecap="round" marker-end="url(#arrow)"/>
<rect x="698" y="155" width="340" height="330" rx="28" fill="#D8E1EB" stroke="none" stroke-width="0"/>
<rect x="690" y="145" width="340" height="330" rx="28" fill="#FFF5CC" stroke="#D99A00" stroke-width="3"/>
<text x="860" y="240" fill="#0F172A" font-family="Microsoft YaHei" font-size="34" font-weight="700" text-anchor="middle" dominant-baseline="middle">
<tspan x="860" dy="0.0">中间架构层</tspan>
</text>
<rect x="760" y="285" width="200" height="54" rx="18" fill="#FFF8E1" stroke="#D99A00" stroke-width="2"/>
<text x="860" y="312" fill="#D99A00" font-family="Microsoft YaHei" font-size="24" font-weight="700" text-anchor="middle" dominant-baseline="middle">
<tspan x="860" dy="0.0">架构 2：3 个 GRU</tspan>
</text>
<rect x="760" y="360" width="90" height="44" rx="18" fill="#FFFFFF" stroke="#D99A00" stroke-width="2"/>
<text x="805" y="382" fill="#D99A00" font-family="Microsoft YaHei" font-size="18" font-weight="700" text-anchor="middle" dominant-baseline="middle">
<tspan x="805" dy="0.0">GRU Q</tspan>
</text>
<rect x="880" y="360" width="90" height="44" rx="18" fill="#FFFFFF" stroke="#D99A00" stroke-width="2"/>
<text x="925" y="382" fill="#D99A00" font-family="Microsoft YaHei" font-size="18" font-weight="700" text-anchor="middle" dominant-baseline="middle">
<tspan x="925" dy="0.0">GRU Σ</tspan>
</text>
<rect x="820" y="418" width="90" height="44" rx="18" fill="#FFFFFF" stroke="#D99A00" stroke-width="2"/>
<text x="865" y="440" fill="#D99A00" font-family="Microsoft YaHei" font-size="18" font-weight="700" text-anchor="middle" dominant-baseline="middle">
<tspan x="865" dy="0.0">GRU S</tspan>
</text>
<text x="1098" y="270" fill="#475569" font-family="Microsoft YaHei" font-size="22" font-weight="700" text-anchor="middle" dominant-baseline="middle">
<tspan x="1098" dy="-17.0">全连接</tspan>
<tspan x="1098" dy="34">非线性映射</tspan>
</text>
<line x1="1030" y1="310" x2="1140" y2="310" stroke="#475569" stroke-width="4" stroke-linecap="round" marker-end="url(#arrow)"/>
<rect x="1163" y="185" width="370" height="250" rx="34" fill="#D8E1EB" stroke="none" stroke-width="0"/>
<rect x="1155" y="175" width="370" height="250" rx="34" fill="#E8F8EC" stroke="#2F9E44" stroke-width="3"/>
<text x="1340" y="260" fill="#0F172A" font-family="Microsoft YaHei" font-size="34" font-weight="700" text-anchor="middle" dominant-baseline="middle">
<tspan x="1340" dy="0.0">输出层</tspan>
</text>
<text x="1340" y="355" fill="#0F172A" font-family="Microsoft YaHei" font-size="30" font-weight="700" text-anchor="middle" dominant-baseline="middle">
<tspan x="1340" dy="0.0">卡尔曼增益  Kₜ</tspan>
</text>
</svg>